<?xml version="1.0" encoding="UTF-8"?><svg id="Layer_2" xmlns="http://www.w3.org/2000/svg" xmlns:xlink="http://www.w3.org/1999/xlink" viewBox="0 0 150.5 117.9"><defs><style>.cls-1{fill:url(#linear-gradient);}.cls-2{fill:url(#linear-gradient-3);}.cls-3{fill:url(#linear-gradient-4);}.cls-4{fill:url(#linear-gradient-2);}</style><linearGradient id="linear-gradient" x1="-745.64" y1="-114.35" x2="-738.46" y2="-114.35" gradientTransform="translate(7736.08 -13866.86) rotate(-70) scale(21.16)" gradientUnits="userSpaceOnUse"><stop offset="0" stop-color="#25408f"/><stop offset=".06" stop-color="#224390"/><stop offset=".13" stop-color="#164a95"/><stop offset=".2" stop-color="#00569d"/><stop offset=".28" stop-color="#0065a9"/><stop offset=".36" stop-color="#0078b9"/><stop offset=".44" stop-color="#0090cf"/><stop offset=".52" stop-color="#00abed"/><stop offset=".53" stop-color="#00aeef"/><stop offset=".54" stop-color="#00b0f0"/><stop offset=".61" stop-color="#00b8f1"/><stop offset=".67" stop-color="#00c0f3"/><stop offset=".74" stop-color="#3dc7f4"/><stop offset=".81" stop-color="#5bcbf5"/><stop offset=".89" stop-color="#69cef6"/><stop offset="1" stop-color="#6dcff6"/></linearGradient><linearGradient id="linear-gradient-2" x1="-785.05" y1="-71.51" x2="-777.86" y2="-71.51" gradientTransform="translate(623.45 -6489.34) rotate(-90) scale(8.42)" gradientUnits="userSpaceOnUse"><stop offset="0" stop-color="#d2232a"/><stop offset=".19" stop-color="#dc4828"/><stop offset=".4" stop-color="#e56325"/><stop offset=".61" stop-color="#ed7523"/><stop offset=".81" stop-color="#f37f21"/><stop offset="1" stop-color="#f58220"/></linearGradient><linearGradient id="linear-gradient-3" x1="-745.64" y1="-115.59" x2="-738.46" y2="-115.59" xlink:href="#linear-gradient"/><linearGradient id="linear-gradient-4" x1="-785.06" y1="-68.93" x2="-777.87" y2="-68.93" xlink:href="#linear-gradient-2"/></defs><g id="Layer_1-2"><g><path d="M56.9,117.9C69.5,117.9,93,0,150.5,0h-27.2C81.8,0,58,61.5,43.2,95.7c5.6,12,11.1,22.2,13.7,22.2Z"/><path class="cls-1" d="M56.9,117.9C69.5,117.9,93,0,150.5,0h-27.2C81.8,0,58,61.5,43.2,95.7c5.6,12,11.1,22.2,13.7,22.2Z"/><path d="M29.7,117.9h0c3.5,0,7.8-9.1,13.5-22.2-8-17.3-16-38.3-16-38.3H0s23.2,60.5,29.7,60.5Z"/><path class="cls-4" d="M29.7,117.9h0c3.5,0,7.8-9.1,13.5-22.2-8-17.3-16-38.3-16-38.3H0s23.2,60.5,29.7,60.5Z"/><path d="M29.7,117.9h27.2c-2.7,0-8.2-10.2-13.7-22.2-5.6,13.2-10,22.2-13.5,22.2Z"/><path class="cls-2" d="M29.7,117.9h27.2c-2.7,0-8.2-10.2-13.7-22.2-5.6,13.2-10,22.2-13.5,22.2Z"/><path class="cls-3" d="M29.7,117.9h27.2c-2.7,0-8.2-10.2-13.7-22.2-5.6,13.2-10,22.2-13.5,22.2Z"/></g></g></svg>